<?xml version="1.0" encoding="UTF-8"?><svg width="48px" height="42px" viewBox="0 0 48 42" version="1.1" xmlns="http://www.w3.org/2000/svg" xmlns:xlink="http://www.w3.org/1999/xlink">        <title>Group</title>    <desc>Created with Sketch.</desc>    <g id="DESKTOP:-Screens" stroke="none" stroke-width="1" fill="none" fill-rule="evenodd">        <g id="RESULTS---1-(Scales)" transform="translate(-1138.000000, -184.000000)" fill="#D55C18">            <g id="Group" transform="translate(1138.000000, 184.000000)">                <path d="M0,21 C0,23.165 0.672,24.46 2,24.863 L2,33 L10,33 L10,24.863 C11.326,24.459 11.998,23.165 12,21 L12,14 L0,14 L0,21 Z" id="Fill-1"></path>                <path d="M36,14 L36,21 C36,23.165 36.672,24.46 38,24.863 L38,33 L46,33 L46,24.863 C47.326,24.459 47.998,23.165 48,21 L48,14 L36,14 Z" id="Fill-3"></path>                <path d="M16,25 C16,27.415 17.721,29.435 20,29.899 L20,42 L28,42 L28,29.899 C30.279,29.435 32,27.415 32,25 L32,14 L16,14 L16,25 Z" id="Fill-5"></path>                <path d="M42,12 C44.206,12 46,10.206 46,8 C46,5.794 44.206,4 42,4 C39.794,4 38,5.794 38,8 C38,10.206 39.794,12 42,12" id="Fill-7"></path>                <path d="M6,12 C8.206,12 10,10.206 10,8 C10,5.794 8.206,4 6,4 C3.794,4 2,5.794 2,8 C2,10.206 3.794,12 6,12" id="Fill-9"></path>                <path d="M24,12 C27.309,12 30,9.309 30,6 C30,2.691 27.309,0 24,0 C20.691,0 18,2.691 18,6 C18,9.309 20.691,12 24,12" id="Fill-11"></path>            </g>        </g>    </g></svg>